<?xml version="1.0" encoding="UTF-8" standalone="no"?>
<svg height="50px" version="1.1" viewBox="0 0 360 50" width="360px" xmlns:sketch="http://www.bohemiancoding.com/sketch/ns" xmlns:xlink="http://www.w3.org/1999/xlink" xmlns="http://www.w3.org/2000/svg">
<!-- Generator: Sketch 3.2.2 (9983) - http://www.bohemiancoding.com/sketch -->
  <defs></defs>
  <g fill-rule="evenodd" fill="none" id="Page-1" sketch:type="MSPage" stroke-width="1" stroke="none">
    <g fill="#FFFFFF" id="Imported-Layers" sketch:type="MSLayerGroup" transform="translate(-1.000000, 0.000000)">
      <path
        d="M253.709965,10.4270833 C262.45952,10.4270833 268.183353,16.7333333 268.183353,25.4020833 C268.183353,34.0729167 262.45952,40.3791667 253.709965,40.3791667 C244.96041,40.3791667 239.236578,34.0729167 239.236578,25.4020833 C239.236578,16.7333333 244.96041,10.4270833 253.709965,10.4270833"
        id="Fill-1" sketch:type="MSShapeGroup"></path>
      <path
        d="M236.094,7.8 L228.202081,14.2375 C226.161283,11.80625 223.200249,10.4270833 219.385751,10.4270833 C211.621121,10.4270833 205.897289,16.7333333 205.897289,25.4020833 C205.897289,34.0729167 211.621121,40.3791667 219.053965,40.3791667 C223.200249,40.3791667 226.555671,38.5375 228.661156,35.3875 L237.212474,41.7583333 C233.331202,47.275 226.751821,49.8375 220.370676,49.8375 C205.832601,49.8375 195.240486,40.3125 195.240486,25.4020833 C195.240486,10.49375 205.832601,0.96875 220.370676,0.96875 C225.568659,0.96875 232.14804,2.74375 236.094,7.8"
        id="Fill-2" sketch:type="MSShapeGroup"></path>
      <path
        d="M158.030358,48.6541667 L158.030358,2.15208333 L189.675243,2.15208333 L189.675243,11.6104167 L168.292775,11.6104167 L168.292775,20.28125 L188.492081,20.28125 L188.492081,29.7375 L168.292775,29.7375 L168.292775,39.1958333 L190.858405,39.1958333 L190.858405,48.6541667 L158.030358,48.6541667"
        id="Fill-3" sketch:type="MSShapeGroup"></path>
      <path d="M108.517017,2.15208333 L123.912728,2.15208333 C138.911965,2.15208333 151.478104,8.52291667 151.478104,25.5333333 C151.478104,40.575 139.17489,48.6541667 125.294127,48.6541667 L108.517017,48.6541667 L108.517017,2.15208333" id="Fill-4"
        sketch:type="MSShapeGroup"></path>
      <path
        d="M76.8742197,0.96875 C91.4143815,0.96875 102.00441,10.49375 102.00441,25.4020833 C102.00441,40.3125 91.4143815,49.8375 76.8742197,49.8375 C62.3340578,49.8375 51.7440289,40.3125 51.7440289,25.4020833 C51.7440289,10.49375 62.3340578,0.96875 76.8742197,0.96875"
        id="Fill-5" sketch:type="MSShapeGroup"></path>
      <path
        d="M45.2293353,48.6541667 L31.8097341,48.6541667 L11.481052,15.5520833 L11.3495896,15.5520833 L11.3495896,48.6541667 L1.08717341,48.6541667 L1.08717341,2.15208333 L15.0326243,2.15208333 L34.8354566,34.4666667 L34.9669191,34.4666667 L34.9669191,2.15208333 L45.2293353,2.15208333 L45.2293353,48.6541667"
        id="Fill-6" sketch:type="MSShapeGroup"></path>
      <path
        d="M320.098491,48.6541667 L306.67889,48.6541667 L286.350208,15.5520833 L286.218746,15.5520833 L286.218746,48.6541667 L275.956329,48.6541667 L275.956329,2.15208333 L289.90178,2.15208333 L309.704613,34.4666667 L309.836075,34.4666667 L309.836075,2.15208333 L320.098491,2.15208333 L320.098491,48.6541667"
        id="Fill-7" sketch:type="MSShapeGroup"></path>
      <path
        d="M360.47415,11.6104167 L339.486069,11.6104167 L339.486069,21.0666667 L358.892428,21.0666667 L358.892428,30.525 L339.486069,30.525 L339.486069,48.6541667 L329.223653,48.6541667 L329.223653,2.15208333 L360.47415,2.15208333 L360.47415,11.6104167"
        id="Fill-8" sketch:type="MSShapeGroup"></path>
    </g>
  </g>
</svg>
