<svg version="1.1" id="Layer_1" xmlns="http://www.w3.org/2000/svg" xmlns:xlink="http://www.w3.org/1999/xlink" x="0px" y="0px"
	 viewBox="0 0 71 40" xml:space="preserve">
<g>
	<path fill="#009d12" d="M5,0c0,0-5,0-5,5v30c0,0,0,5,5,5h61c0,0,5,0,5-5V5c0,0,0-5-5-5H5z"/>
	<path fill="#FFFFFF" d="M12.6,24.2c-0.2-1.5-0.5-2.9-0.8-4.2l-1.5-6.6h-4l5.5,20.6h2.5l5.3-20.6h-3.6L14.7,20
		c-0.5,2.4-0.8,4.1-1,5.3l-0.5,3.1c0,0.1-0.1,0.3-0.1,0.7C13,27.3,12.8,25.7,12.6,24.2 M24.9,21.7c0.2-2.2,0.4-3.6,0.7-4.3
		c0.3-0.8,0.9-1.1,1.7-1.1c0.8,0,1.3,0.4,1.6,1.1c0.3,0.7,0.6,2.1,0.7,4.3H24.9z M24.9,24.5h8.6V24c0-7.3-2-10.9-6.1-10.9
		c-2.1,0-3.6,0.9-4.6,2.6c-1,1.8-1.5,4.4-1.5,8.1c0,1.8,0.1,3.4,0.4,4.7c0.3,1.3,0.6,2.4,1.1,3.3c0.5,0.9,1.2,1.5,1.9,1.9
		s1.7,0.6,2.8,0.6c3.6,0,5.6-2.4,5.9-7.3h-3.5c0,2.7-0.8,4-2.4,4C25.7,31.1,24.9,28.9,24.9,24.5 M45.1,34.1h3.7V19.4
		c0-2.1-0.2-3.6-0.6-4.3c-0.7-1.3-1.9-2-3.5-2c-1.7,0-3.1,0.9-4.1,2.7v-2.4h-3.8v20.6h3.8V20.7c0-0.8,0.1-1.5,0.1-2
		c0.1-0.6,0.2-1,0.4-1.3c0.2-0.4,0.4-0.6,0.7-0.7c0.3-0.2,0.7-0.2,1.1-0.2c0.8,0,1.4,0.3,1.7,0.9c0.3,0.6,0.5,1.6,0.5,3L45.1,34.1z
		 M61,23.8c0,2.5-0.2,4.3-0.6,5.5c-0.4,1.1-1,1.7-1.8,1.7c-0.9,0-1.6-0.6-1.9-1.6c-0.4-1.1-0.5-3-0.5-5.7s0.2-4.5,0.6-5.5
		c0.4-1.1,1-1.6,1.9-1.6c0.9,0,1.5,0.6,1.8,1.7C60.8,19.4,61,21.3,61,23.8 M64.6,34.1V0h-3.7v15.7c-0.3-0.5-0.5-0.9-0.8-1.3
		s-0.6-0.6-0.8-0.8c-0.5-0.4-1.2-0.6-2-0.6c-0.9,0-1.6,0.2-2.2,0.6s-1.2,1-1.5,1.9c-0.4,0.9-0.7,1.9-0.9,3.3
		c-0.2,1.3-0.3,2.9-0.3,4.7c0,3.7,0.4,6.5,1.2,8.3c0.8,1.8,2,2.6,3.7,2.6c0.9,0,1.6-0.2,2.1-0.6c0.5-0.4,1.1-1.2,1.6-2.3v2.7
		L64.6,34.1L64.6,34.1z"/>
</g>
</svg>
