<svg xmlns="http://www.w3.org/2000/svg" viewBox="0 0 779.5276 166.5354">
  <path d="M95.2394 126.9552h13.75v-29l17.375-58.5h-13.125l-10.5 39.875-10.5-39.875h-14.375l17.375 58.5v29zm47.3574-67.375c0-6.25 2.75-8.625 7.125-8.625s7.125 2.375 7.125 8.625v47.25c0 6.25-2.75 8.625-7.125 8.625s-7.125-2.375-7.125-8.625v-47.25zm-13.75 46.375c0 14 7.375 22 20.875 22s20.875-8 20.875-22v-45.5c0-14-7.375-22-20.875-22s-20.875 8-20.875 22v45.5zm50.0605-66.5v66.625c0 14 7 22 20.5 22s20.5-8 20.5-22v-66.625h-13v67.5c0 6.25-2.75 8.5-7.125 8.5s-7.125-2.25-7.125-8.5v-67.5h-13.75zm93.1797 87.5c-1.375-3.25-1.5-6.375-1.5-10.625v-13.5c0-9.125-2.25-15.75-9.125-18.625 6.125-2.875 9-8.75 9-17.75v-6.875c0-13.5-6.125-20.125-20.375-20.125h-20.75v87.5h13.75v-35.625h4.75c6.25 0 9 3 9 11.125v13.75c0 7.125.5 8.5 1.25 10.75h14zm-22.375-75c4.875 0 7 2.75 7 9v8.625c0 7-3.125 9.25-8.25 9.25h-5.375v-26.875h6.625zm76.08 42.375v12.5c0 6.25-2.75 8.5-7.125 8.5s-7.125-2.25-7.125-8.5v-47.25c0-6.25 2.75-8.625 7.125-8.625s7.125 2.375 7.125 8.625v9.375h13v-8.5c0-14-7-22-20.5-22s-20.5 8-20.5 22v45.5c0 14 7 22 20.5 22s20.5-8 20.5-22v-11.625h-13zm34.09-34.75c0-6.25 2.75-8.625 7.125-8.625s7.125 2.375 7.125 8.625v47.25c0 6.25-2.75 8.625-7.125 8.625s-7.125-2.375-7.125-8.625v-47.25zm-13.75 46.375c0 14 7.375 22 20.875 22s20.875-8 20.875-22v-45.5c0-14-7.375-22-20.875-22s-20.875 8-20.875 22v45.5zm69.6855-66.5h-19.125v87.5h12v-61.875l10.25 61.875h13l9.5-62.75v62.75h13v-87.5h-19.125l-9.375 62.125-10.125-62.125zm68.877 0h-20.25v87.5h13.75v-32.875h6.5c13.75 0 20.5-7.625 20.5-21.625v-11.375c0-14-6.75-21.625-20.5-21.625zm0 12.5c4.375 0 6.75 2 6.75 8.25v13.125c0 6.25-2.375 8.25-6.75 8.25h-6.5v-29.625h6.5zm55.66-12.5h-20.125l-14 87.5h12.625l2.375-15.875h16.875l2.375 15.875h13.875l-14-87.5zm-10.75 15.5l6.625 44.25h-13.25l6.625-44.25zm60.4065 72h14.125v-87.5h-12.25v52.375l-14.125-52.375h-17.25v87.5h12.375v-63.375l17.125 63.375zm36.9667 0h13.75v-29l17.375-58.5h-13.125l-10.5 39.875-10.5-39.875h-14.375l17.375 58.5v29zm58.9355-19.375c-.375-1.625-.5-3.25-.5-4.875 0-16 16.25-19.5 16.25-42.25 0-14-6.875-22-20.25-22s-20.25 8-20.25 22v8.625h13v-9.5c0-6.25 2.5-8.625 6.875-8.625s6.875 2.375 6.875 8.625c0 21.75-15 23.5-15 42.625 0 2.25.25 3.875.75 5.375h12.25zm-12.875 6.125v13.25h13.25v-13.25h-13.25z" style="-inkscape-font-specification:'Bebas Neue Bold';text-align:center" font-size="125" font-family="Bebas Neue" letter-spacing="0" word-spacing="0" text-anchor="middle" fill="#999" font-weight="bold"/>
</svg>
