<svg xmlns="http://www.w3.org/2000/svg" viewBox="0 0 440 92.5">
  <path d="M29.2 91.8H0V19.5h28c13.5 0 22 7.7 22 20 0 7.7-5 13.3-9.8 15.2 5.6 2.2 11 7.6 11 16.7C51 84.7 42 92 29 92zm-2-62.4H11V50h16.2C34.2 50 39 46.6 39 40c0-6.7-4.8-10.4-11.8-10.4zm1 30.6H11v22h17.2c7.6 0 12-4.7 12-11 0-6.5-4.4-11-12-11zM67.3 91.8V19.5h46.2v10H78.3v21h30v9.8h-30V82h35.2v9.8H67.3z" fill="#231f20"/>
  <path d="M67.3 0h46.2v9.8H67.3" fill="#c02d26"/>
  <path d="M173 91.8L139.4 41v50.8h-11V19.5h10L172 70.3V19.5h11v72.3h-10zM245 84.2c-5.3 5.8-12 8.3-19.8 8.3-7.5 0-14-2.8-19-7.8-7-7-7-15-7-29s0-22 7-29c5-5 11.3-7.8 19-7.8 15.4 0 24.3 10 26.3 22.4h-11c-2-8-7-12.6-15.3-12.6-4.2 0-8 1.7-10.6 4.5-3.6 3.8-4.4 8-4.4 22.4 0 14.5.8 18.7 4.4 22.5 2.5 2.8 6.4 4.4 10.6 4.4 4.8 0 9-1.8 11.8-5 2.7-3 3.7-6.8 3.7-11.4v-4h-15.5v-9.4h26.4v11c0 9.4-1.7 15.4-6.5 20.4zM267.8 91.8V19.5h11V82h34.8v10h-45.8zM326 91.8V19.5h46.3v10H337v21h30v9.8h-30V82h35.3v9.8H326zM427.2 91.8L412 61.4h-13.7v30.4h-11V19.5h28c13.7 0 22.5 9 22.5 21.2 0 10.3-6.3 17-14.4 19.2L440 91.7h-12.8zm-12.7-62.4h-16.2V52h16.2c7.3 0 12.3-4 12.3-11.2 0-7-5-11.4-12.3-11.4z" fill="#231f20"/>
</svg>
