<svg xmlns="http://www.w3.org/2000/svg" viewBox="0 0 120 30">
  <path fill-rule="evenodd" d="M48.642 16.11c0-2.95-.773-4.266-3.154-4.266-2.287 0-3.09 1.317-3.09 4.202 0 2.98.834 4.296 3.152 4.296 2.35 0 3.092-1.38 3.092-4.233zm3.617-.064c0 4.453-1.8 7.526-6.81 7.526-4.8 0-6.68-3.105-6.68-7.463 0-4.46 1.82-7.5 6.8-7.5 4.82 0 6.68 3.07 6.68 7.43zm8.79-4.14c-1.3 0-2.23.597-2.75 1.192v6.147c.43.407 1.26 1.034 2.75 1.034 2.5 0 3.18-1.76 3.18-4.17 0-2.42-.65-4.21-3.19-4.21zM53.26 30v-2.853l1.608-.44V11.97h-2.01V8.927h5.164v1.6c.71-.942 1.73-1.914 3.895-1.914 3.895 0 5.936 2.728 5.936 7.495 0 4.67-1.917 7.462-5.936 7.462-1.917 0-2.968-.753-3.617-1.474v4.86h3V30h-8.04zm22.284-18.093c-1.515 0-2.35.596-2.75 1.035v6.114c.493.596 1.452 1.223 2.72 1.223 2.565 0 3.214-1.85 3.214-4.24 0-2.42-.68-4.14-3.184-4.14zm-2.75-1.788c.617-.73 1.7-1.51 3.585-1.51 4.05 0 5.93 2.79 5.93 7.43 0 4.51-2.04 7.52-5.94 7.52-2.14 0-3.34-.69-4.12-1.45l-1.79 1.095h-1.11V4.442h-2.04V1.4h5.47v8.717zm19.704 4.48c.03-.19.03-.35.03-.44 0-1.76-1.174-2.64-2.596-2.64-1.948 0-2.69 1.38-2.814 3.07h5.38zm2.102 4.64L95.713 22c-1.484.94-3.524 1.568-5.38 1.568-4.884 0-6.893-3.135-6.893-7.494 0-4.076 2.163-7.463 6.492-7.463 4.297 0 5.936 3.11 5.936 6.18 0 .79-.093 1.85-.248 2.45h-8.533c.063 2.01 1.113 3.23 3.278 3.23 1.484 0 2.937-.44 4.235-1.22zm7.537 1.41c1.298 0 2.504-.63 3.246-1.32v-2.19l-1.762.22c-2.47.28-3.18.78-3.18 1.82 0 .97.59 1.47 1.7 1.47zm-1.082-6.68h-3.03c-.31-.6-.464-1.26-.464-1.95 0-1.98 1.8-3.42 5.69-3.42 4.18 0 5.66 1.25 5.66 5.33v5.55c0 .59.31.85.81.85.31 0 .59-.03.84-.1v2.98c-.58.123-1.33.186-2.01.186-1.79 0-2.72-.878-2.9-2.195-.77 1.16-2.32 2.35-4.635 2.35-2.627 0-4.235-1.57-4.235-4.11 0-3.135 2.69-4.14 6.865-4.452l1.76-.187v-2.88c-.462-.124-1.513-.187-2.13-.187-.99 0-1.393.03-2.196.185v2.038zm15.11 4.64c0 1.16.65 1.66 1.61 1.66.494 0 1.483-.1 2.132-.22l.093 3.08c-.742.25-2.257.44-3.277.44-2.875 0-3.988-1.92-3.988-4.46v-7.15h-2.566V9.24l2.56-.312V5.416l3.43-.565v4.08h3.34v3.04h-3.34v6.65zM11.333 15.58C6.99 13.97 4.735 13.493 3.9 13.358c.477-.777 1.045-1.5 1.7-2.15l15.876-.008c.95.94 1.725 2.04 2.295 3.233-1.52 1.19-5.73 3.634-12.43 1.147zm8.76-1.534H17.28c-.438 0-.797.342-.797.764s.36.77.796.77h2.81c.44 0 .79-.347.79-.77 0-.42-.36-.765-.8-.765zm0 4.683H17.28c-.438 0-.797-.35-.797-.77 0-.42.36-.77.796-.77h2.81c.44 0 .79.34.79.76s-.36.76-.8.76zm0 3.14H17.28c-.438 0-.797-.35-.797-.77 0-.42.36-.77.796-.77h2.81c.44 0 .79.34.79.76s-.36.76-.8.76zm0 3.15H17.28c-.438 0-.797-.35-.797-.77 0-.42.36-.77.796-.77h2.81c.44 0 .79.34.79.76s-.36.763-.8.763zm2.542-15.74l-.31-.29L4.745 9l-.31.286C1.615 11.89 0 15.594 0 19.456c0 3.867 1.62 7.576 4.447 10.176l.31.286 17.58-.01.31-.29c2.82-2.6 4.436-6.305 4.436-10.168 0-3.867-1.62-7.576-4.447-10.175zM6.87 5.61l-.057-.145c-.066-.14-.144-.29-.235-.448-.048-.086-.09-.153-.117-.2l-.04-.07c-.48-.76-1.12-1.52-1.66-1.984l-1-.85 17.807 1.3c.135.01.226.035.278.054l.147.05-.05.146c-.03.08-.072.164-.132.252l-.12.182c-.322.488-.93 1.67-1.153 2.118L7.04 6.02c-.047-.135-.098-.27-.16-.413zm21.207 3.27c-1.103-1.37-2.333-2.357-3.562-2.86h-1.928l.03-.053c.25-.437.68-1.195.687-1.205.607-.91.776-1.664.5-2.24-.297-.623-1.152-1.088-2.127-1.16L3.182.012C3.08.002 2.982 0 2.89 0 1.73 0 1.35.582 1.225.93c-.228.637.052 1.314.815 1.96.01.01.88.828 1.696 1.68.384.384.69.874.91 1.456l.03 1.94 18.77-.028s1.445.63 2.87 2.4c2.015 2.502 3.845 7.067 3.012 12.437h2.296c.815-5.98-1.288-11.09-3.546-13.896z"/>
</svg>