<svg xmlns="http://www.w3.org/2000/svg" viewBox="0 0 162.988 222.35">
  <path fill="#040606" d="M12.267 182.718l-3.753-.922c-1.722-.462-3.196-1.167-3.196-2.706 0-1.968 1.723-2.765 3.505-2.765 2.122 0 3.748.676 4.702 2.52l3.35-1.477c-1.415-3.288-4.056-4.484-7.716-4.484-4.25 0-7.84 2.396-7.84 6.516 0 3.87 2.33 5.194 5.25 5.932l3.69.89c1.69.493 3.01 1.23 3.01 2.86 0 2.028-2.09 2.888-4.31 2.888-2.46 0-4.46-1.2-5.29-3.32L0 190.094c1.138 3.72 4.83 5.41 8.854 5.41 4.825 0 8.42-2.672 8.42-6.7 0-3.904-2.4-5.47-5.007-6.086m16.31-9.834c-4.798 0-8.76 2.888-8.76 8.082v7.01c0 4.885 4.148 7.562 8.912 7.562 4.18 0 8.2-2.338 8.2-7.227v-.67h-3.87v.31c0 2.86-2.34 3.97-4.34 3.97-2.59 0-4.86-1.5-4.86-4.15v-7.01c0-3.13 2.61-4.24 4.7-4.24 1.99 0 4.48 1.11 4.48 3.97v.31h3.87v-.68c0-4.88-4.18-7.22-8.36-7.22m24.51 9.31h-8.75v-8.94h-4.09v21.92h4.09v-9.37h8.76v9.37h4.08v-21.92h-4.09v8.95M62 195.19h4.09v-21.92h-4.08v21.91zm18.15-3.48h-5.13v-6h5.164c2.276 0 3.535.92 3.535 2.92 0 1.994-1.38 3.07-3.57 3.07zm-5.13-14.97h4.64c2.06 0 3.44.8 3.44 2.704 0 1.78-1.2 2.826-3.255 2.826h-4.82v-5.53zm8.97 6.85v-.03c2.24-1.045 3.104-2.68 3.104-4.644 0-3.78-2.522-5.657-6.76-5.657h-9.4v21.91h9.93c3.624 0 6.912-2.18 6.912-6.3 0-2.46-1.26-4.61-3.78-5.29m17.6-.86l-3.75-.93c-1.72-.46-3.196-1.17-3.196-2.71 0-1.97 1.72-2.766 3.51-2.766 2.12 0 3.75.68 4.7 2.52l3.35-1.47c-1.41-3.29-4.05-4.49-7.71-4.49-4.24 0-7.84 2.397-7.84 6.517 0 3.87 2.34 5.19 5.26 5.93l3.69.89c1.69.496 3.01 1.23 3.01 2.86 0 2.03-2.09 2.89-4.305 2.89-2.46 0-4.453-1.2-5.282-3.32l-3.69 1.44c1.14 3.72 4.83 5.41 8.85 5.41 4.827 0 8.427-2.67 8.427-6.7 0-3.9-2.4-5.47-5.01-6.08m6.51-5.96h6.302v18.41h4.054v-18.41h6.303v-3.5h-16.66v3.507m23.17 9.04h9.86v-3.6h-9.868v-5.35h11.126v-3.593H127.2v21.92h15.338v-3.59H131.3v-5.78m27.63 1.53c0 3.14-2.614 4.245-4.7 4.245h-4.337v-14.72h4.18c2.585 0 4.857 1.502 4.857 4.15v6.33zm-4.577-14.075h-8.545v21.913h8.572c4.33 0 8.61-2.89 8.61-8.086v-5.84c0-4.88-3.877-7.99-8.638-7.99M8.54 213.99l-6.935-11.45H.288V222h1.12v-17.55l6.608 11.003.045.076h.88l6.63-11.04V222h1.15v-19.46h-1.38l-6.8 11.446M20.98 222h11.67v-1.063H22.12v-8.523h8.46v-1.063h-8.46v-7.74h10.53v-1.06H20.972V222m16.91-18.396h5.703c4.85 0 5.374 3.647 5.374 5.216v6.984c0 2.367-1.41 5.133-5.38 5.133h-5.7v-17.333zm5.808-1.063h-6.94V222h6.95c3.92 0 6.448-2.475 6.448-6.305v-7.064c0-3.81-2.41-6.09-6.444-6.09M53.938 222h1.143v-19.46h-1.14V222zm15.562-7.938h-7.37l3.734-10.065 3.63 10.065zm-3.05-11.628h-1.08L58.08 222h1.17l2.522-6.9h8.08l2.526 6.9h1.22l-7.112-19.464-.037-.102m21.52 10.812h5.56v3.58c0 2.79-2.08 4.458-5.56 4.458-3.63 0-5.89-2.143-5.89-5.59v-6.765c0-3.4 2.31-5.68 5.75-5.68 3.48 0 5.56 1.68 5.56 4.49v1.18h1.14v-1.42c0-3.11-2.77-5.37-6.58-5.37-4.09 0-7.06 2.81-7.06 6.68v7.17c0 3.92 2.7 6.36 7.06 6.36 4.07 0 6.71-2.1 6.71-5.34v-4.86h-6.71v1.09m11.89-9.67h4.512c3.52 0 5.54 1.65 5.54 4.52 0 3.19-1.76 4.67-5.54 4.67h-4.51v-9.2zm11.275 4.52c0-3.43-2.385-5.56-6.225-5.56h-6.2V222h1.146v-8.19h4.547l6.213 8.13.045.06h1.417l-6.324-8.24c3.38-.35 5.387-2.45 5.387-5.665m10.327 13.19c-3.63 0-5.89-2.144-5.89-5.59v-6.5c0-3.55 2.32-5.94 5.76-5.94 3.77 0 6.02 2 6.02 5.35v6.98c0 3.41-2.365 5.7-5.886 5.7zm0-19.146c-4.24 0-7.09 2.78-7.09 6.92v6.93c0 3.86 2.79 6.36 7.09 6.36 4.22 0 7.06-2.79 7.06-6.93v-6.85c0-3.97-2.7-6.44-7.054-6.44m23.86 13.67c.05 1.57-.42 2.91-1.35 3.87-1.02 1.05-2.52 1.6-4.344 1.6-1.73 0-5.755-.56-5.755-5.7v-13.04h-1.148v13.39c0 4.73 3.66 6.41 6.79 6.41 2.2 0 4.02-.67 5.26-1.94 1.11-1.13 1.68-2.69 1.64-4.51v-13.37h-1.09v13.27m6.36-12.23h4.95c2.85 0 4.914 1.94 4.914 4.62 0 2.183-1.015 4.786-5.856 4.786h-4.01v-9.42zm5.03-1.04h-6.177V222h1.147v-7.975h4.354c4.08 0 6.717-2.285 6.717-5.823 0-3.386-2.424-5.66-6.04-5.66"/>
  <path fill="#2759a2" d="M.004 162.982h162.98V0H.004v162.982z"/>
  <path fill="#fff" d="M143.433 106.037c.338-2.462.688-5.112.688-7.94 0-12.3-5.98-28.513-12.31-42.065l-5.3-10.926c-3.52-7.4-7.02-13.55-7.02-20.077 0-4.58 2.63-7.93 6.88-7.93 5.45 0 7.73 3.87 7.73 12.51h9.18V14.46c-5.47-1.94-10.92-3.164-20.07-3.164-21.12 0-39.63 8.8-39.63 32.754 0 20.253 18.86 39.968 20.43 61.983H91.67c-2.83-25.54-24.13-27.99-30.47-27.99-19.904 0-33.83 13.565-33.83 32.93 0 22.714 14.977 40.842 47.03 40.842 30.628 0 58.106-14.79 66.906-37.857h21.68v-7.927H143.43zm-72.908 36.806c-25.703 0-33.83-18.127-33.83-29.216 0-11.29 6.352-17.803 14.802-17.803 8.625 0 16.04 5.29 16.04 18.14h36.253c-2.113 18.315-16.888 28.88-33.265 28.88"/>
</svg>