<svg xmlns="http://www.w3.org/2000/svg" viewBox="0 0 584.525 154.25">
  <path fill="#5b93c6" d="M99.31 98.614l-49.64 16.122V62.49l49.64 36.123"/>
  <path fill="#3681bc" d="M49.67 62.49l-.003 52.246L.03 98.614 49.67 62.49"/>
  <path fill="#d3dfee" d="M49.783 4.1l49.535 42.29-49.65 16.1.115-58.39"/>
  <path fill="#9fbbdc" d="M99.316 46.39l-.023 52.212L49.668 62.49l49.648-16.1"/>
  <path fill="#a9c2df" d="M49.815 4.11l-.146 58.38L.02 46.31l49.79-42.2"/>
  <path fill="#81a9d2" d="M.025 46.31l49.643 16.18L0 98.524.025 46.31"/>
  <path fill="#231f20" d="M186.92 88.288c.004-3.583-1.316-6.493-3.94-8.728-2.63-2.242-5.936-4.283-9.906-6.132-3.974-1.84-8.285-3.744-12.92-5.705-4.646-1.955-8.954-4.365-12.924-7.21-3.98-2.855-7.282-6.403-9.91-10.66-2.625-4.25-3.94-9.675-3.944-16.28.004-5.705.953-10.655 2.86-14.852 1.893-4.19 4.61-7.69 8.14-10.49 3.52-2.8 7.684-4.87 12.496-6.21C161.69.67 167.056.01 172.987 0c6.824 0 13.255.59 19.303 1.765 6.044 1.176 11.02 2.88 14.936 5.116l-7.21 19.31c-2.467-1.57-6.157-2.99-11.083-4.28-4.923-1.28-10.24-1.92-15.947-1.92-5.37 0-9.483 1.07-12.328 3.19-2.86 2.13-4.28 4.99-4.28 8.57 0 3.36 1.31 6.15 3.936 8.39 2.635 2.24 5.93 4.31 9.904 6.21 3.97 1.91 8.278 3.87 12.923 5.88 4.65 2.01 8.96 4.44 12.93 7.3 3.98 2.86 7.28 6.38 9.9 10.57 2.63 4.2 3.95 9.43 3.95 15.7s-1.04 11.67-3.11 16.2c-2.07 4.54-4.97 8.31-8.72 11.33-3.75 3.03-8.28 5.27-13.59 6.72-5.32 1.46-11.16 2.19-17.53 2.19-8.39 0-15.78-.78-22.16-2.34-6.37-1.56-11.08-3.13-14.09-4.71l7.38-19.63c1.23.68 2.83 1.4 4.79 2.18 1.96.79 4.17 1.52 6.64 2.19 2.46.664 5.06 1.23 7.81 1.68 2.74.44 5.57.66 8.48.664 6.82 0 12.05-1.145 15.69-3.443 3.63-2.29 5.46-5.784 5.45-10.483"/>
  <path fill="#231f20" d="M249.61 83.082l3.02 13.092h1.008l2.18-13.26L268.57 35.92l22.497-.003-25.51 75.7c-2.122 6.262-4.166 11.997-6.125 17.198-1.96 5.204-4.115 9.713-6.466 13.517-2.34 3.8-4.94 6.732-7.802 8.81-2.856 2.07-6.237 3.112-10.15 3.11-5.82 0-10.468-.954-13.932-2.86l4.027-17.452c1.67.673 3.35 1.006 5.03 1.01 2.57-.004 5.06-1.096 7.47-3.276 2.4-2.182 4.21-6.12 5.45-11.833l-35.08-83.92h26.18l15.44 47.17m84.21 13.59c0-2.24-.95-4.03-2.85-5.37-1.91-1.34-4.26-2.57-7.05-3.69-2.81-1.11-5.89-2.26-9.24-3.44-3.35-1.17-6.43-2.79-9.23-4.86-2.8-2.07-5.15-4.7-7.05-7.89-1.91-3.18-2.85-7.3-2.85-12.33 0-8.27 2.45-14.59 7.38-18.96 4.92-4.35 12.02-6.54 21.31-6.54 6.38 0 12.14.67 17.29 2.01 5.14 1.34 9.17 2.85 12.09 4.53l-4.87 15.78c-2.58-1.01-5.82-2.07-9.74-3.18s-7.89-1.68-11.92-1.68c-6.49 0-9.73 2.52-9.73 7.56-.01 2.01.94 3.63 2.84 4.86 1.91 1.23 4.26 2.38 7.05 3.44 2.79 1.07 5.87 2.21 9.23 3.44 3.35 1.24 6.43 2.83 9.23 4.79 2.79 1.96 5.14 4.51 7.05 7.64 1.89 3.138 2.85 7.168 2.84 12.088 0 8.507-2.71 15.19-8.138 20.06-5.424 4.866-13.57 7.3-24.42 7.3-5.93.004-11.5-.757-16.7-2.266-5.2-1.51-9.43-3.273-12.67-5.283l6.04-16.28c2.58 1.45 5.987 2.872 10.237 4.27 4.255 1.402 8.616 2.1 13.1 2.1 3.24 0 5.845-.61 7.8-1.85 1.957-1.23 2.937-3.3 2.937-6.21m28.27-60.756h11.58v-15.8l21.822-6.21v21.97l20.477.004v18.46h-20.48l.01 32.22c0 5.827.58 9.994 1.77 12.51 1.17 2.52 3.38 3.78 6.63 3.78 2.23-.005 4.163-.228 5.79-.674 1.62-.44 3.44-1.12 5.46-2.02l3.86 16.79c-3.02 1.452-6.54 2.68-10.578 3.688-4.03 1.02-8.117 1.52-12.25 1.52-7.725 0-13.4-1.99-17.04-5.96-3.636-3.96-5.456-10.49-5.456-19.55v-42.3H362.1l-.006-18.45m101.46 15.1c-5.71 0-9.934 1.71-12.68 5.12-2.735 3.42-4.387 7.98-4.948 13.68h31.216c.454-6.04-.473-10.68-2.768-13.93-2.293-3.23-5.894-4.86-10.82-4.85zm31.22 61.59c-3.362 2.69-7.923 4.96-13.677 6.8-5.766 1.85-11.895 2.77-18.378 2.78-13.55 0-23.45-3.94-29.72-11.83-6.27-7.89-9.39-18.72-9.4-32.47-.01-14.77 3.52-25.852 10.57-33.235 7.05-7.384 16.95-11.074 29.7-11.074 4.25.01 8.39.56 12.43 1.68 4.03 1.12 7.6 2.96 10.73 5.54 3.13 2.57 5.65 6.04 7.56 10.4 1.9 4.36 2.85 9.78 2.84 16.27.01 2.35-.13 4.87-.41 7.56-.28 2.68-.71 5.48-1.26 8.39l-50.35-.01c.33 7.05 2.14 12.37 5.44 15.94 3.3 3.586 8.64 5.375 16.03 5.378 4.58 0 8.69-.7 12.33-2.1 3.64-1.392 6.4-2.82 8.3-4.28l7.23 14.267m44.29-27.54h-5.87v34.745l-21.82.005V2.345h21.81l.01 69.32 5.03-2.36 19.13-33.394h24.01L561.19 67.8l-8.554 6.385 9.23 6.543 22.66 39.102h-25.01l-20.48-34.75"/>
</svg>
