<svg xmlns="http://www.w3.org/2000/svg" viewBox="0 0 427.862 317.725">
  <g fill="#1a181a">
    <path fill-rule="evenodd" d="M0 27.608c.397-2.07 1.928-2.907 3.733-3.468 12.814-3.98 25.627-7.96 38.438-11.946C52.45 9 62.72 5.8 72.99 2.606c2.423-.753 4.846-1.502 7.274-2.233.526-.16 1.07-.274 1.612-.338 1.343-.156 2.003.23 2.237 1.568.337 1.925.554 3.873.743 5.82.556 5.756 1.08 11.516 1.605 17.275.46 5.027.9 10.057 1.36 15.085.52 5.667 1.05 11.333 1.57 17 .46 4.936.91 9.873 1.36 14.81.47 5.088.95 10.175 1.41 15.265.41 4.45.78 8.9 1.18 13.35.1 1.036.23 2.068.33 3.105.22 2.36 1.56 3.763 3.77 4.446 2.28.7 4.55 1.43 6.83 2.13 21.6 6.6 43.2 13.2 64.8 19.79 7.84 2.39 15.68 4.75 23.53 7.1 2.8.84 5.61.82 8.41-.03 15.59-4.73 31.18-9.44 46.77-14.18 12.84-3.91 25.67-7.85 38.49-11.78 3.25-1 6.49-1.99 9.72-3.02 2.32-.74 3.55-2.39 3.77-4.8.62-6.8 1.22-13.6 1.84-20.39.65-7.01 1.31-14.02 1.96-21.03.58-6.31 1.14-12.62 1.73-18.92.64-6.92 1.31-13.83 1.95-20.75.58-6.22 1.14-12.43 1.72-18.65.04-.36.1-.73.17-1.09.32-1.46 1.21-2.16 2.66-1.8 2.52.62 5.01 1.37 7.49 2.13 17.89 5.49 35.76 10.99 53.64 16.49 5.55 1.71 11.1 3.42 16.64 5.14 3.32 1.03 3.91 1.82 3.65 5.32-.32 4.33-.75 8.66-1.14 12.98-.4 4.45-.81 8.9-1.21 13.34-.47 5.15-.94 10.3-1.4 15.45-.46 5.06-.902 10.12-1.355 15.17l-1.41 15.63c-.45 4.97-.89 9.93-1.347 14.9-.467 5.09-.94 10.18-1.41 15.26-.45 4.9-.905 9.81-1.35 14.72-.46 5.12-.92 10.24-1.37 15.36-.17 1.89-.355 3.78-.466 5.67-.17 2.71-1.4 4.52-4.09 5.31-3.37.98-6.72 2.06-10.08 3.09l-56.19 17.2c-21.33 6.52-42.66 13.05-63.99 19.58-1.11.34-2.21.71-3.3 1.11-1.71.64-2.69 1.85-2.77 3.72-.04 1.04-.12 2.08-.12 3.12-.01 26.55-.02 53.1-.02 79.643v.46c-.05 2.79-.81 3.87-3.45 4.72-4.04 1.31-8.09 2.6-12.14 3.86-7.82 2.42-15.65 4.82-23.48 7.225-2.88.89-5.81.98-8.68.096-11.98-3.68-23.94-7.4-35.89-11.14-2.91-.91-3.767-2.135-3.77-5.194-.017-18.466-.01-36.93-.02-55.395 0-8.42.005-16.84 0-25.26 0-.856-.08-1.71-.13-2.567-.1-1.692-1.01-2.812-2.58-3.325-3.54-1.158-7.096-2.28-10.66-3.37-40.205-12.307-80.41-24.6-120.62-36.9-.64-.2-1.285-.4-1.92-.616-2.505-.85-3.83-2.64-4.06-5.246-.64-7.19-1.24-14.39-1.89-21.58-.63-6.98-1.304-13.953-1.95-20.93-.64-6.95-1.26-13.897-1.9-20.843-.73-7.59-1.46-15.21-2.16-22.82-.59-6.4-1.14-12.8-1.72-19.2C2.59 56.16 2 49.667 1.4 43.18 1 39.04.62 34.9.23 30.76c-.03-.334-.13-.656-.2-.98V27.6"/>
    <path d="M303.136 261.955l6.92-14.81c.113-.23.21-.396.285-.5.08-.106.16-.183.23-.23.08-.047.16-.076.25-.086.09-.01.19-.04.3-.08h11.03c.14 0 .25.04.33.13.09.08.13.18.13.3 0 .21-.13.45-.4.71l-13.58 24.03v22.29c0 .89-.44 1.34-1.31 1.34h-8.57c-.38 0-.67-.12-.88-.36-.21-.24-.31-.57-.31-.99v-22.35L284 247.39c-.25-.248-.37-.487-.37-.716 0-.114.036-.214.113-.3.074-.087.18-.13.313-.13h11.03c.13.04.237.063.313.072.07.01.15.034.23.08.07.04.15.12.23.23.07.1.18.27.31.5l6.97 14.81m36.45-14.02c0-.4.13-.74.39-1.02.26-.29.62-.43 1.08-.43h9.68c.37 0 .7.13 1.01.393.3.26.46.61.49 1.04v35.58h17.98c.39 0 .73.13 1.01.39s.42.62.42 1.08v8.6c0 .37-.13.7-.38 1.01-.26.3-.61.47-1.07.49h-29.19c-.96 0-1.44-.48-1.44-1.44v-45.7m58.36 10.3v25.14h2.74c.5 0 .99-.02 1.47-.05.48-.04.96-.07 1.44-.12 1.64-.13 3.16-.53 4.58-1.2 1.41-.67 2.65-1.54 3.71-2.62 1.05-1.08 1.88-2.35 2.48-3.81.6-1.46.9-3.06.9-4.78 0-1.83-.35-3.51-1.03-5.05-.69-1.54-1.62-2.87-2.8-3.99-1.18-1.12-2.56-1.99-4.14-2.62-1.58-.63-3.27-.94-5.05-.94h-4.32zm29.91 12.62c0 2.31-.29 4.51-.88 6.59-.59 2.08-1.43 4.02-2.52 5.82-1.09 1.8-2.39 3.43-3.91 4.89s-3.2 2.7-5.04 3.73c-1.85 1.02-3.83 1.81-5.97 2.37-2.14.56-4.35.83-6.64.83h-16.1c-.39 0-.74-.09-1.05-.27-.31-.17-.46-.54-.46-1.11v-45.67c0-.46.12-.83.38-1.11.25-.29.62-.43 1.12-.43h16.12c2.29 0 4.5.28 6.62.85 2.13.56 4.11 1.37 5.96 2.42 1.84 1.04 3.53 2.3 5.05 3.76 1.53 1.46 2.83 3.09 3.91 4.9s1.92 3.76 2.52 5.85c.6 2.09.9 4.28.9 6.57"/>
  </g>
</svg>
